<svg xmlns="http://www.w3.org/2000/svg" viewBox="0 0 1000 1000">
  <path d="M842.8 70H157.2C71.2 70 1.4 139.8 1.4 225.8v374c0 86 69.7 155.8 155.8 155.8h124.7v112.1c0 25.2 15.1 47.9 38.5 57.6 7.7 3.2 15.8 4.8 23.8 4.8 16.2 0 32.2-6.3 44.1-18.2l161-156.2h293.5c86 0 155.8-69.7 155.8-155.8V225.8c0-86-69.7-155.8-155.8-155.8zM235.1 494.6c-51.7 0-93.5-41.9-93.5-93.5s41.8-93.5 93.5-93.5c51.6 0 93.5 41.9 93.5 93.5 0 51.7-41.8 93.5-93.5 93.5zm264.9 0c-51.6 0-93.5-41.9-93.5-93.5s41.9-93.5 93.5-93.5 93.5 41.9 93.5 93.5c0 51.7-41.9 93.5-93.5 93.5zm257.1 0c-51.6 0-93.5-41.9-93.5-93.5s41.9-93.5 93.5-93.5c51.7 0 93.5 41.9 93.5 93.5 0 51.7-41.9 93.5-93.5 93.5z"/>
</svg>