<svg id="Layer_1" data-name="Layer 1" xmlns="http://www.w3.org/2000/svg" viewBox="0 0 148 63.5"><defs><style>.cls-1{fill:#fff;}.cls-2{fill:#f57f29;}</style></defs><title>logo_carr_health_rev</title><path class="cls-1" d="M30.26,39.05c3.48-1,5.62-4.65,6.24-8,.12-.68.25-.92.62-.92s.43.43.43.92a63.5,63.5,0,0,1-1.36,7.88c-.37,1.17-.41,1.52-1.6,1.78-2,.43-7.41,1.25-8.75,1.32C14.34,42.6,3.65,37.69.77,24.93a18.4,18.4,0,0,1-.42-2.76C-.14,15.4,3.2,9.42,8.22,5.51A26.18,26.18,0,0,1,24.82.21c4,.12,8,1.06,12,1.63.88.12.7,1.78.67,2.37-.11,2.71-.37,5.39-.61,8.09-.06.92-.18,1.29-.55,1.29s-.5-.43-.5-1.29a9.72,9.72,0,0,0-4.54-8c-6-3.66-13.95-2-19,2.47a19.42,19.42,0,0,0,2.17,30.33c4.77,3.25,10.31,3.56,15.74,1.94"/><path class="cls-1" d="M73.51,40.23c-.93-.62-1.13-1.16-3.21-6.14C67,26.21,58.38,4.54,57.5,2.46c-.69-1.77-.6-2-.92-2S56,.76,55.26,2.58L42.65,35.48c-1.08,2.65-3.13,4.63-4.86,4.86s-1.67.37-1.67.62.66.45,1.35.45h9.66c.44,0,.94-.13.94-.45s-.19-.44-.75-.44h-.45c-1.38,0-1.73-.5-1.73-1.64,0-.1,0-.21,0-.32a27.34,27.34,0,0,1,1.4-4.16l2.77-7.88A.67.67,0,0,1,50,26H61.44a.57.57,0,0,1,.51.31L66.58,39c.38.94,0,1.26-.25,1.39l-.1,0a3.3,3.3,0,0,1-.85.09h-.57c-.57,0-.76.19-.76.44s.26.43,1,.45,5.09.06,9.08,0c.69,0,1.2-.09,1.2-.41C75.28,40.4,73.88,40.48,73.51,40.23ZM60.68,23.81H50.59c-.12,0-.25-.13-.12-.38L55.2,9.49c.31-.88.37-.88.69,0l5,13.94C60.94,23.62,60.94,23.81,60.68,23.81Z"/><path class="cls-1" d="M115.29,16.39c0-8.33,0-9.84-.12-11.54s-1.26-2.65-3.22-3a10.91,10.91,0,0,0-1.51-.13c-.44,0-.7-.12-.7-.37s.19-.45.76-.45c2.71,0,7.25.19,7.38.19.57,0,4.85-.19,6.62-.19,3.53,0,7.38.32,10.34,2.4a9.57,9.57,0,0,1,3.79,7.7c0,3.46-2,8.22-7,12.26a68.75,68.75,0,0,0,9.87,13.34c3,3.09,3.94,4,5.53,4,.51,0,.7.19.7.45s-.26.44-1.14.44h-1c-3,0-4-.19-5.39-.76-2.65-1.13-4.54-4-7.82-8.2-2.46-3-4.64-6.43-5.71-7.76a.9.9,0,0,0-.76-.37l-5.46-.07c-.25,0-.31.07-.31.32v.88c0,5.05,0,9.65.31,11.92.19,1.51.38,2.78,2.46,3,.63.06,1.33.12,1.83.12s.82.19.82.38-.25.51-.88.51H113.18c-.64,0-1-.14-.89-.51,0-.21.34-.33.85-.41,1.26-.2,1.71-1,1.9-2.49.32-2.27.25-7.44.25-12.17Zm4.86,4.48c0,.31.06.63.31.75a16,16,0,0,0,5.62.82,7.41,7.41,0,0,0,4.22-.94c1.89-1.2,3.16-4,3.16-8,0-6.88-3.66-10.66-9.28-10.66a17.55,17.55,0,0,0-3.65.31.59.59,0,0,0-.38.57Z"/><path class="cls-1" d="M79.06,16.39c0-8.33,0-9.84-.12-11.54s-1.26-2.65-3.22-3a10.77,10.77,0,0,0-1.51-.13c-.44,0-.69-.12-.69-.37s.19-.45.75-.45c2.72,0,7.25.19,7.38.19.57,0,4.86-.19,6.62-.19,3.53,0,7.38.32,10.35,2.4A9.6,9.6,0,0,1,102.4,11c0,3.46-2.05,8.22-7,12.26a68.34,68.34,0,0,0,9.88,13.34c3,3.09,3.93,4,5.52,4,.51,0,.7.19.7.45s-.25.44-1.14.44h-1c-3,0-4-.19-5.39-.76-2.65-1.13-4.54-4-7.82-8.2-2.46-3-4.64-6.43-5.71-7.76a.9.9,0,0,0-.76-.37l-5.45-.07c-.26,0-.32.07-.32.32v.88a116.58,116.58,0,0,0,.32,11.92c.19,1.51.37,2.78,2.46,3,.63.06,1.32.12,1.82.12s.82.19.82.38-.25.51-.88.51H77c-.63,0-1-.14-.89-.51,0-.21.34-.33.85-.41,1.26-.2,1.71-1,1.9-2.49.32-2.27.25-7.44.25-12.17Zm4.86,4.48c0,.31.06.63.32.75a16,16,0,0,0,5.61.82,7.41,7.41,0,0,0,4.22-.94c1.9-1.2,3.16-4,3.16-8,0-6.88-3.66-10.66-9.27-10.66a17.66,17.66,0,0,0-3.66.31.59.59,0,0,0-.38.57Z"/><path class="cls-2" d="M1.91,50.82H4.07v5.1H9.92v-5.1h2.15V63.09H9.92V57.92H4.07v5.17H1.91Z"/><path class="cls-2" d="M17.94,50.82H27v1.93H20.1v3.19h6.15v1.93H20.1v3.29h7v1.93H17.94Z"/><path class="cls-2" d="M36.74,50.73h2l5.39,12.36H41.86l-1.25-3h-5.8l-1.26,3H31.34Zm3.09,7.49L37.7,53.31l-2.1,4.91Z"/><path class="cls-2" d="M49,50.82h2.16v10.3h6.44v2H49Z"/><path class="cls-2" d="M63.77,52.82H59.88v-2h10v2H66V63.09H63.77Z"/><path class="cls-2" d="M74.83,50.82H77v5.1h5.85v-5.1H85V63.09H82.83V57.92H77v5.17H74.83Z"/><path class="cls-2" d="M90.31,57v0a6.21,6.21,0,0,1,6.33-6.34,6.39,6.39,0,0,1,4.8,1.91l-1.38,1.6a4.88,4.88,0,0,0-3.44-1.53,4.12,4.12,0,0,0-4.05,4.33v0a4.16,4.16,0,0,0,4.05,4.37,4.81,4.81,0,0,0,3.52-1.6l1.39,1.4a6.31,6.31,0,0,1-5,2.18A6.18,6.18,0,0,1,90.31,57Z"/><path class="cls-2" d="M110.85,50.73h2l5.4,12.36H116l-1.24-3h-5.8l-1.26,3h-2.21Zm3.08,7.49-2.12-4.91-2.1,4.91Z"/><path class="cls-2" d="M123.06,50.82h5.46a4.92,4.92,0,0,1,3.54,1.23,3.69,3.69,0,0,1,1,2.64v0a3.68,3.68,0,0,1-2.93,3.71l3.32,4.65h-2.55l-3-4.28h-2.7v4.28h-2.15Zm5.31,6.08c1.54,0,2.52-.8,2.52-2v0c0-1.32-.95-2-2.54-2h-3.14V56.9Z"/><path class="cls-2" d="M138.44,50.82h9.09v1.93h-6.94v3.19h6.16v1.93h-6.16v3.29h7v1.93h-9.18Z"/></svg>