<svg id="Layer_1" data-name="Layer 1" xmlns="http://www.w3.org/2000/svg" viewBox="0 0 151 43"><defs><style>.cls-1{fill:#fff;}</style></defs><title>logo_carr_corporate_rev</title><path class="cls-1" d="M30.78,39.83c3.56-1.06,5.75-4.76,6.38-8.21.12-.7.25-.95.63-.95s.44.44.44.95a65.36,65.36,0,0,1-1.39,8.05c-.37,1.2-.42,1.56-1.63,1.82-2.05.45-7.58,1.28-8.95,1.35C14.51,43.45,3.57,38.43.62,25.39A19.12,19.12,0,0,1,.2,22.56c-.5-6.91,2.91-13,8.05-17a26.84,26.84,0,0,1,17-5.41c4.13.12,8.23,1.08,12.32,1.66.89.13.71,1.82.68,2.43-.11,2.77-.38,5.51-.62,8.27-.06.94-.19,1.32-.57,1.32s-.5-.44-.5-1.32a9.92,9.92,0,0,0-4.65-8.17C25.79.57,17.62,2.24,12.46,6.84a19.86,19.86,0,0,0,2.22,31c4.88,3.33,10.55,3.64,16.1,2"/><path class="cls-1" d="M75,41c-.94-.64-1.14-1.19-3.27-6.29C68.3,26.69,59.53,4.54,58.63,2.42,57.92.61,58,.35,57.69.35s-.64.32-1.35,2.19L43.44,36.17c-1.09,2.71-3.19,4.75-5,5s-1.71.38-1.71.63.67.46,1.38.46H48c.46,0,1-.13,1-.46s-.19-.45-.77-.45h-.45c-1.42,0-1.78-.51-1.78-1.67a1.84,1.84,0,0,1,0-.33,26.88,26.88,0,0,1,1.42-4.25L50.28,27c.13-.33.32-.52.64-.52H62.66a.56.56,0,0,1,.51.32l4.75,13c.38,1,0,1.29-.26,1.42l-.1,0a3.52,3.52,0,0,1-.87.09H66.1c-.58,0-.77.2-.77.45s.27.44,1,.46,5.21.06,9.29,0c.71,0,1.23-.09,1.23-.41C76.81,41.21,75.37,41.29,75,41Zm-13.1-16.8H51.57c-.13,0-.26-.12-.13-.38L56.28,9.61c.32-.91.38-.91.7,0l5.1,14.25C62.14,24.05,62.14,24.24,61.89,24.24Z"/><path class="cls-1" d="M117.72,16.66c0-8.51,0-10.06-.13-11.8s-1.29-2.71-3.29-3.1a11.25,11.25,0,0,0-1.55-.13c-.45,0-.7-.13-.7-.38s.19-.45.77-.45c2.77,0,7.41.19,7.54.19.58,0,5-.19,6.77-.19,3.61,0,7.55.32,10.58,2.45a9.79,9.79,0,0,1,3.87,7.86c0,3.55-2.1,8.42-7.19,12.54a69.69,69.69,0,0,0,10.1,13.64c3.09,3.16,4,4.06,5.65,4.07.52,0,.71.19.71.45s-.26.45-1.16.45h-1c-3,0-4.1-.2-5.52-.78-2.71-1.16-4.64-4.06-8-8.38-2.52-3.09-4.74-6.58-5.84-7.93a.92.92,0,0,0-.77-.39L123,24.72c-.26,0-.33.06-.33.32v.9A118.26,118.26,0,0,0,123,38.13c.19,1.55.38,2.84,2.51,3.1.64.06,1.35.13,1.87.13s.84.19.84.38-.26.52-.9.52H115.55c-.64,0-1-.14-.9-.52,0-.22.34-.34.87-.43,1.28-.2,1.75-1,1.94-2.53.32-2.33.26-7.61.26-12.45Zm5,4.58A.8.8,0,0,0,123,22a16.47,16.47,0,0,0,5.73.84,7.58,7.58,0,0,0,4.32-1c1.94-1.22,3.23-4.06,3.23-8.19,0-7-3.74-10.9-9.48-10.9a16.8,16.8,0,0,0-3.74.33.58.58,0,0,0-.39.58Z"/><path class="cls-1" d="M80.68,16.66c0-8.51,0-10.06-.13-11.8s-1.29-2.71-3.29-3.1a11.25,11.25,0,0,0-1.55-.13c-.45,0-.7-.13-.7-.38S75.2.8,75.78.8c2.77,0,7.41.19,7.54.19.58,0,5-.19,6.77-.19,3.61,0,7.55.32,10.58,2.45a9.79,9.79,0,0,1,3.87,7.86c0,3.55-2.1,8.42-7.19,12.54a69.69,69.69,0,0,0,10.1,13.64c3.09,3.16,4,4.06,5.65,4.07.52,0,.71.19.71.45s-.26.45-1.16.45h-1c-3,0-4.1-.2-5.52-.78-2.71-1.16-4.64-4.06-8-8.38-2.52-3.09-4.74-6.58-5.84-7.93a.92.92,0,0,0-.77-.39L86,24.72c-.26,0-.33.06-.33.32v.9A118.26,118.26,0,0,0,86,38.13c.19,1.55.38,2.84,2.51,3.1.64.06,1.35.13,1.87.13s.84.19.84.38-.26.52-.9.52H78.51c-.64,0-1-.14-.9-.52,0-.22.34-.34.87-.43,1.28-.2,1.75-1,1.94-2.53.32-2.33.26-7.61.26-12.45Zm5,4.58A.8.8,0,0,0,86,22a16.47,16.47,0,0,0,5.73.84,7.58,7.58,0,0,0,4.32-1c1.94-1.22,3.23-4.06,3.23-8.19,0-7-3.74-10.9-9.48-10.9A16.8,16.8,0,0,0,86,3.12a.58.58,0,0,0-.39.58Z"/></svg>