<svg id="Layer_1" data-name="Layer 1" xmlns="http://www.w3.org/2000/svg" xmlns:xlink="http://www.w3.org/1999/xlink" viewBox="0 0 340.26 40.72"><defs><style>.cls-1,.cls-2{fill:none;}.cls-2{stroke:#00437b;stroke-miterlimit:10;}.cls-3{font-size:10.5px;font-family:Gotham-Book, Gotham;letter-spacing:0em;}.cls-10,.cls-3{fill:#00437b;}.cls-4{letter-spacing:-0.01em;}.cls-5{letter-spacing:-0.06em;}.cls-6{letter-spacing:-0.09em;}.cls-7{letter-spacing:-0.02em;}.cls-8{letter-spacing:-0.1em;}.cls-9{clip-path:url(#clip-path);}</style><clipPath id="clip-path"><rect class="cls-1" width="143" height="40.72"/></clipPath></defs><title>logo_carr_tagline</title><line class="cls-2" x1="155.73" y1="0.43" x2="155.73" y2="40.72"/><text class="cls-3" transform="translate(167.08 19.33)">M<tspan class="cls-4" x="9.07" y="0">A</tspan><tspan x="17.27" y="0">XIMIZE </tspan><tspan class="cls-5" x="57.28" y="0">Y</tspan><tspan x="64.12" y="0">OUR PROFI</tspan><tspan class="cls-6" x="124.85" y="0">T</tspan><tspan x="130.67" y="0">ABILITY</tspan><tspan x="0" y="12">THROUGH REAL E</tspan><tspan class="cls-7" x="97.65" y="12">S</tspan><tspan class="cls-6" x="104.17" y="12">TA</tspan><tspan x="117.29" y="12">TE</tspan><tspan class="cls-8" x="131.05" y="12"> </tspan><tspan x="133.14" y="12">™</tspan></text><g id="CARR_Logo_Blue" data-name="CARR Logo Blue"><g class="cls-9"><g class="cls-9"><path class="cls-10" d="M29.15,37.72c3.37-1,5.44-4.5,6-7.78.12-.65.24-.89.6-.89s.41.41.41.89a61,61,0,0,1-1.31,7.63c-.35,1.13-.4,1.48-1.55,1.73-1.93.42-7.18,1.2-8.48,1.27C13.74,41.15,3.38,36.4.59,24.05a18.63,18.63,0,0,1-.4-2.68C-.29,14.82,3,9,7.81,5.24A25.38,25.38,0,0,1,23.88.11c3.92.12,7.8,1,11.67,1.58.85.12.67,1.72.65,2.29-.11,2.63-.37,5.22-.59,7.84-.06.89-.18,1.25-.54,1.25s-.48-.42-.48-1.25a9.4,9.4,0,0,0-4.4-7.74C24.43.54,16.68,2.13,11.8,6.48a18.8,18.8,0,0,0,2.11,29.36c4.62,3.15,10,3.44,15.24,1.88"/><path class="cls-10" d="M71,38.86c-.89-.6-1.08-1.12-3.1-6C64.68,25.28,56.38,4.3,55.52,2.29c-.67-1.71-.58-2-.88-2S54,.64,53.35,2.41L41.14,34.26c-1,2.56-3,4.49-4.7,4.71s-1.62.36-1.62.6.64.43,1.31.43h9.35c.43,0,.91-.13.91-.43s-.18-.43-.73-.43h-.42c-1.35,0-1.69-.49-1.69-1.59a1.8,1.8,0,0,1,0-.31,26.56,26.56,0,0,1,1.35-4l2.68-7.63a.65.65,0,0,1,.62-.49H59.34a.55.55,0,0,1,.49.3l4.49,12.28c.36.91,0,1.22-.25,1.34l-.09,0a3.15,3.15,0,0,1-.82.09H62.6c-.55,0-.73.19-.73.43s.25.42.91.43,4.93.06,8.8,0c.67,0,1.16-.09,1.16-.39,0-.58-1.36-.51-1.72-.75M58.61,23H48.84c-.13,0-.25-.12-.13-.37L53.29,9.1c.31-.86.37-.86.68,0l4.82,13.49c.06.19.06.37-.18.37"/><path class="cls-10" d="M111.48,15.78c0-8.06,0-9.53-.12-11.18S110.14,2,108.25,1.67a10.4,10.4,0,0,0-1.47-.12c-.43,0-.67-.13-.67-.37s.18-.43.73-.43c2.63,0,7,.19,7.15.19.54,0,4.7-.19,6.41-.19,3.42,0,7.14.31,10,2.32a9.28,9.28,0,0,1,3.67,7.45c0,3.36-2,8-6.81,11.88a66.38,66.38,0,0,0,9.56,12.92c2.93,3,3.81,3.84,5.35,3.84.49,0,.68.19.68.43s-.25.43-1.1.43h-.93c-2.87,0-3.88-.18-5.22-.73-2.57-1.1-4.4-3.85-7.57-7.94-2.39-2.93-4.5-6.23-5.53-7.51a.87.87,0,0,0-.74-.37l-5.28-.06c-.25,0-.31.06-.31.3v.86a112.91,112.91,0,0,0,.31,11.54c.18,1.47.36,2.69,2.38,2.93.61.06,1.28.12,1.77.12s.8.19.8.37-.25.49-.86.49H109.43c-.61,0-.92-.13-.85-.49s.32-.32.82-.4c1.21-.2,1.65-.94,1.84-2.41.3-2.2.24-7.2.24-11.78Zm4.7,4.33c0,.31.06.61.31.73a15.56,15.56,0,0,0,5.43.8,7.16,7.16,0,0,0,4.1-.92c1.83-1.16,3-3.85,3-7.75,0-6.66-3.54-10.32-9-10.32a16.69,16.69,0,0,0-3.54.3.56.56,0,0,0-.37.55Z"/><path class="cls-10" d="M76.4,15.78c0-8.06,0-9.53-.12-11.18S75.06,2,73.17,1.67a10.4,10.4,0,0,0-1.47-.12c-.42,0-.67-.13-.67-.37s.19-.43.74-.43c2.62,0,7,.19,7.14.19.55,0,4.7-.19,6.41-.19,3.42,0,7.14.31,10,2.32A9.28,9.28,0,0,1,99,10.52c0,3.36-2,8-6.81,11.88a66.79,66.79,0,0,0,9.56,12.92c2.93,3,3.81,3.84,5.36,3.84.49,0,.67.19.67.43s-.25.43-1.1.43h-.93c-2.87,0-3.88-.18-5.22-.73-2.57-1.1-4.4-3.85-7.57-7.94-2.38-2.93-4.49-6.23-5.53-7.51a.86.86,0,0,0-.73-.37l-5.29-.06c-.24,0-.3.06-.3.3v.86c0,4.88,0,9.34.3,11.54.18,1.47.37,2.69,2.38,2.93.61.06,1.28.12,1.77.12s.8.19.8.37-.25.49-.86.49H74.35c-.61,0-.92-.13-.85-.49s.32-.32.82-.4c1.22-.2,1.66-.94,1.84-2.41.31-2.2.24-7.2.24-11.78Zm4.71,4.33c0,.31.06.61.3.73a15.58,15.58,0,0,0,5.44.8,7.15,7.15,0,0,0,4.09-.92c1.83-1.16,3-3.85,3-7.75,0-6.66-3.54-10.32-9-10.32a16.69,16.69,0,0,0-3.54.3.56.56,0,0,0-.36.55Z"/></g></g></g></svg>