<svg id="Layer_1" data-name="Layer 1" xmlns="http://www.w3.org/2000/svg" viewBox="0 0 148 63"><defs><style>.cls-1{fill:#fff;}.cls-2{fill:#0088ce;}</style></defs><title>logo_carr_comm_tagline_rev</title><path class="cls-1" d="M30.05,38.75c3.45-1,5.58-4.62,6.19-8,.12-.67.24-.91.61-.91s.43.43.43.91a63.51,63.51,0,0,1-1.35,7.82c-.37,1.17-.41,1.52-1.59,1.78-2,.43-7.36,1.23-8.69,1.3-11.41.6-22-4.28-24.89-16.94A19.48,19.48,0,0,1,.35,22C-.14,15.27,3.18,9.33,8.16,5.45A26,26,0,0,1,24.64.19c4,.12,8,1.05,12,1.62.87.12.7,1.76.67,2.35-.11,2.69-.37,5.35-.61,8-.06.92-.18,1.28-.55,1.28s-.48-.42-.48-1.28a9.66,9.66,0,0,0-4.52-7.93C25.2.63,17.26,2.26,12.26,6.72a19.28,19.28,0,0,0,2.15,30.1c4.74,3.23,10.25,3.53,15.64,1.93"/><path class="cls-1" d="M73,39.92c-.91-.62-1.11-1.15-3.18-6.1C66.48,26,58,4.49,57.08,2.42c-.68-1.75-.59-2-.9-2s-.63.31-1.32,2.13L42.34,35.2c-1.07,2.63-3.1,4.6-4.82,4.83s-1.66.37-1.66.62.65.43,1.34.43h9.59c.43,0,.94-.12.94-.43s-.19-.44-.76-.44h-.43c-1.38,0-1.73-.5-1.73-1.63a1.82,1.82,0,0,1,0-.32,27.06,27.06,0,0,1,1.38-4.12L49,26.31a.67.67,0,0,1,.63-.5H61a.56.56,0,0,1,.5.31l4.6,12.59c.38.93,0,1.25-.25,1.37l-.1,0a2.84,2.84,0,0,1-.84.1h-.57c-.57,0-.75.19-.75.44s.26.42.94.43,5,.07,9,0c.69,0,1.2-.08,1.2-.4C74.74,40.09,73.34,40.17,73,39.92ZM60.24,23.62h-10c-.13,0-.25-.13-.13-.38L54.8,9.4c.31-.87.37-.87.69,0l4.94,13.84C60.5,23.43,60.5,23.62,60.24,23.62Z"/><path class="cls-1" d="M114.46,16.25c0-8.26,0-9.77-.13-11.46s-1.25-2.63-3.19-3a10.75,10.75,0,0,0-1.5-.13c-.44,0-.69-.12-.69-.37s.19-.44.75-.44c2.69,0,7.2.19,7.32.19.57,0,4.82-.19,6.58-.19,3.5,0,7.32.31,10.26,2.38a9.49,9.49,0,0,1,3.76,7.64c0,3.44-2,8.17-7,12.17a67.62,67.62,0,0,0,9.81,13.25c3,3.06,3.9,3.94,5.49,3.94.5,0,.68.19.68.44s-.25.44-1.12.44h-.95c-3,0-4-.19-5.36-.75-2.63-1.13-4.51-4-7.76-8.14-2.44-3-4.61-6.39-5.67-7.7a.9.9,0,0,0-.75-.38l-5.42-.06c-.25,0-.31.06-.31.31v.88c0,5,0,9.58.31,11.83.19,1.5.38,2.75,2.44,3,.63.06,1.32.12,1.82.12s.81.19.81.38-.25.5-.88.5H112.35c-.62,0-.94-.14-.87-.5s.33-.34.84-.42c1.25-.2,1.7-1,1.88-2.46.32-2.26.26-7.39.26-12.09Zm4.82,4.45a.79.79,0,0,0,.31.75,16,16,0,0,0,5.57.81,7.34,7.34,0,0,0,4.2-.94c1.88-1.19,3.13-3.94,3.13-8,0-6.82-3.63-10.58-9.21-10.58a16.73,16.73,0,0,0-3.63.31.57.57,0,0,0-.37.57Z"/><path class="cls-1" d="M78.49,16.25c0-8.26,0-9.77-.12-11.46s-1.25-2.63-3.19-3a10.91,10.91,0,0,0-1.51-.13c-.44,0-.69-.12-.69-.37s.19-.44.76-.44c2.69,0,7.19.19,7.32.19.56,0,4.82-.19,6.57-.19,3.51,0,7.33.31,10.27,2.38a9.49,9.49,0,0,1,3.76,7.64c0,3.44-2,8.17-7,12.17a68,68,0,0,0,9.8,13.25c3,3.06,3.91,3.94,5.49,3.94.5,0,.69.19.69.44s-.25.44-1.13.44h-1c-2.94,0-4-.19-5.35-.75-2.63-1.13-4.51-4-7.77-8.14-2.44-3-4.6-6.39-5.66-7.7a.91.91,0,0,0-.76-.38l-5.41-.06c-.25,0-.32.06-.32.31v.88a114.82,114.82,0,0,0,.32,11.83c.18,1.5.37,2.75,2.44,3,.62.06,1.31.12,1.81.12s.82.19.82.38-.25.5-.88.5H76.39c-.63,0-1-.14-.88-.5s.34-.34.85-.42c1.24-.2,1.69-1,1.88-2.46.31-2.26.25-7.39.25-12.09Zm4.82,4.45a.79.79,0,0,0,.32.75,16,16,0,0,0,5.57.81,7.31,7.31,0,0,0,4.19-.94c1.88-1.19,3.13-3.94,3.13-8,0-6.82-3.63-10.58-9.2-10.58a16.66,16.66,0,0,0-3.63.31.58.58,0,0,0-.38.57Z"/><path class="cls-2" d="M1.36,56.56v0a6.16,6.16,0,0,1,6.28-6.3,6.38,6.38,0,0,1,4.77,1.9L11,53.7a4.85,4.85,0,0,0-3.41-1.51,4.08,4.08,0,0,0-4,4.3v0a4.11,4.11,0,0,0,4,4.33,4.78,4.78,0,0,0,3.5-1.58l1.37,1.39a6.29,6.29,0,0,1-4.94,2.16A6.12,6.12,0,0,1,1.36,56.56Z"/><path class="cls-2" d="M16.46,56.56v0a6.24,6.24,0,0,1,6.38-6.3,6.19,6.19,0,0,1,6.35,6.27v0a6.24,6.24,0,0,1-6.38,6.3A6.18,6.18,0,0,1,16.46,56.56Zm10.49,0v0a4.17,4.17,0,0,0-4.14-4.33,4.12,4.12,0,0,0-4.11,4.3v0a4.17,4.17,0,0,0,4.14,4.33A4.11,4.11,0,0,0,27,56.56Z"/><path class="cls-2" d="M34.39,50.43h2.28l3.7,5.76,3.71-5.76h2.28V62.61H44.22V53.88l-3.85,5.74H40.3l-3.81-5.71v8.7h-2.1Z"/><path class="cls-2" d="M52.09,50.43h2.28l3.71,5.76,3.7-5.76h2.28V62.61H61.92V53.88l-3.84,5.74H58L54.2,53.91v8.7H52.09Z"/><path class="cls-2" d="M69.8,50.43h9v1.92H71.94v3.16H78v1.92h-6.1V60.7h7v1.91H69.8Z"/><path class="cls-2" d="M84.06,50.43h5.43A4.87,4.87,0,0,1,93,51.65a3.71,3.71,0,0,1,1,2.63v0A3.66,3.66,0,0,1,91.1,58l3.29,4.61H91.87l-3-4.25H86.2v4.25H84.06Zm5.27,6c1.53,0,2.5-.8,2.5-2v0c0-1.31-.93-2-2.52-2H86.2v4.09Z"/><path class="cls-2" d="M98.7,56.56v0a6.16,6.16,0,0,1,6.28-6.3,6.37,6.37,0,0,1,4.77,1.9l-1.38,1.58A4.84,4.84,0,0,0,105,52.19a4.08,4.08,0,0,0-4,4.3v0a4.11,4.11,0,0,0,4,4.33,4.78,4.78,0,0,0,3.5-1.58l1.38,1.39a6.3,6.3,0,0,1-4.94,2.16A6.13,6.13,0,0,1,98.7,56.56Z"/><path class="cls-2" d="M114.81,50.43H117V62.61h-2.14Z"/><path class="cls-2" d="M127.12,50.35h2l5.36,12.26H132.2L131,59.67h-5.76L124,62.61h-2.2Zm3.06,7.42-2.1-4.87L126,57.77Z"/><path class="cls-2" d="M139.16,50.43h2.14V60.66h6.4v2h-8.54Z"/></svg>